<?xml version="1.0" encoding="UTF-8"?>
<svg width="34px" height="34px" viewBox="0 0 34 34" version="1.1" xmlns="http://www.w3.org/2000/svg" xmlns:xlink="http://www.w3.org/1999/xlink">
    <title>icon</title>
    <g id="页面-1" stroke="none" stroke-width="1" fill="none" fill-rule="evenodd">
        <g id="icon">
            <rect id="4" x="0" y="0" width="34" height="34"></rect>
            <g id="1" transform="translate(0.500000, 0.500000)" fill="#66666B" fill-rule="nonzero">
                <path d="M23.6394181,17.53125 L11.4230751,17.53125 L11.4230751,17.53125 C10.8097195,17.53125 10.3125,17.0695429 10.3125,16.4999984 C10.3125,15.9304539 10.809723,15.46875 11.4230785,15.46875 L23.6394215,15.46875 L23.6394215,15.46875 C24.252777,15.46875 24.75,15.9304571 24.75,16.4999984 C24.75,17.0695429 24.252777,17.53125 23.6394249,17.53125 L23.6394181,17.53125 Z" id="3"></path>
                <path d="M32.9670224,8.80728998 L32.9670224,8.80729028 C32.9603731,8.72513348 32.9437509,8.64409107 32.9175224,8.56595098 C32.9072099,8.53604141 32.9051474,8.5040692 32.8927724,8.47519097 L32.8927724,8.475191 C32.8357654,8.31298501 32.7381252,8.16810628 32.6091785,8.0543958 L23.3444241,0.24180538 C22.9886436,-0.00262798926 22.9824568,0.000466083619 22.6875166,0.000466083619 L10.2300116,0.000466083619 C9.89691932,0.000466083619 9.90310613,-0.0222239346 9.54732564,0.249024775 L0.356813061,8.04511519 L0.356813105,8.04511515 C0.109660509,8.26006991 -0.0182786205,8.5813008 0.0134062465,8.907337 C0.0103125236,8.93002708 0,8.94962309 0,8.97231285 L0,31.7644248 L0,31.7644398 C0.000576929801,32.4465925 0.553375103,32.9994393 1.23545204,33 L31.764577,33 L31.764577,33 C32.4470502,32.9994225 33,32.4459447 33,31.7633924 L33,8.97128049 L33,8.97128057 C32.992994,8.91555052 32.9819652,8.86040023 32.9670001,8.80626217 L32.9670224,8.80728998 Z M29.0245394,7.73570178 L17.531243,7.73570178 L17.531243,2.06318112 L22.2976678,2.06318112 L29.0245394,7.73570178 Z M10.5961142,2.06318112 L15.4687783,2.06318112 L15.4687783,7.73570178 L3.90845803,7.73570178 L10.5961142,2.06318112 Z M30.9375217,30.936221 L2.06253177,30.936221 L2.06253177,9.79839555 L30.9375217,9.79839555 L30.9375217,30.936221 Z" id="2"></path>
            </g>
        </g>
    </g>
</svg>